<svg width="22" height="22" viewBox="0 0 22 22" fill="none" xmlns="http://www.w3.org/2000/svg">
<path d="M9.50481 12.492C11.4438 14.4309 13.729 16.3698 14.6292 15.4696C15.9449 14.1539 16.7066 13.0459 19.5458 15.3311C22.3849 17.6163 20.2383 19.1397 18.9226 20.3862C17.4684 21.8404 12.1363 20.4554 6.80416 15.1233C1.47206 9.79125 0.0870766 4.45915 1.54129 3.00494C2.78775 1.75847 4.3112 -0.457479 6.59638 2.38169C8.88157 5.22086 7.77363 6.0519 6.45792 7.29837C5.62694 8.26784 7.49662 10.553 9.50481 12.492Z" stroke="#990033" stroke-miterlimit="10" stroke-linecap="round" stroke-linejoin="round"/>
<path d="M13.0365 4.66697C14.2137 4.11298 15.6679 4.32073 16.7066 5.35945C17.6761 6.32892 17.8839 7.71386 17.3991 8.89108" stroke="#990033" stroke-miterlimit="10" stroke-linecap="round" stroke-linejoin="round"/>
<path d="M11.6515 1.62004C14.0752 0.512072 17.0528 0.996826 19.061 2.93577C20.9999 4.87471 21.4847 7.71392 20.5152 10.0683" stroke="#990033" stroke-miterlimit="10" stroke-linecap="round" stroke-linejoin="round"/>
</svg>
