<svg width="19" height="15" viewBox="0 0 19 15" fill="none" xmlns="http://www.w3.org/2000/svg">
<g clip-path="url(#clip0)">
<path d="M18.2594 2.14342C17.5736 1.32816 16.3073 0.995605 13.8891 0.995605H5.11076C2.63714 0.995605 1.34943 1.34961 0.666165 2.21757C0 3.06384 0 4.31075 0 6.0365V9.32578C0 12.6691 0.7904 14.3666 5.11076 14.3666H13.8891C15.9862 14.3666 17.1483 14.0732 17.9001 13.3537C18.6711 12.6159 19 11.4113 19 9.32578V6.0365C19 4.21655 18.9485 2.96229 18.2594 2.14342ZM12.1981 8.13526L8.21186 10.2185C8.12275 10.2651 8.02529 10.2882 7.92796 10.2882C7.81776 10.2882 7.70781 10.2585 7.61042 10.1996C7.42704 10.0884 7.31506 9.88969 7.31506 9.6753V5.52217C7.31506 5.30815 7.42673 5.10958 7.60975 4.9984C7.79282 4.88723 8.02051 4.87963 8.21045 4.9783L12.1967 7.04812C12.3995 7.15342 12.5268 7.36278 12.5271 7.5912C12.5274 7.81981 12.4006 8.02947 12.1981 8.13526Z" fill="#990033"/>
</g>
<defs>
<clipPath id="clip0">
<rect width="19" height="14" fill="white" transform="translate(0 0.995605)"/>
</clipPath>
</defs>
</svg>
