<svg width="10" height="19" viewBox="0 0 10 19" fill="none" xmlns="http://www.w3.org/2000/svg">
<g clip-path="url(#clip0)">
<path d="M9.36525 0.999351L7.03106 0.995605C4.40867 0.995605 2.71396 2.73432 2.71396 5.42543V7.46788H0.36703C0.164227 7.46788 0 7.63229 0 7.8351V10.7944C0 10.9972 0.164415 11.1614 0.36703 11.1614H2.71396V18.6286C2.71396 18.8314 2.87819 18.9956 3.08099 18.9956H6.14307C6.34587 18.9956 6.5101 18.8312 6.5101 18.6286V11.1614H9.25421C9.45701 11.1614 9.62124 10.9972 9.62124 10.7944L9.62236 7.8351C9.62236 7.73772 9.5836 7.64447 9.51487 7.57555C9.44615 7.50664 9.35252 7.46788 9.25514 7.46788H6.5101V5.73647C6.5101 4.90429 6.70841 4.48183 7.79246 4.48183L9.36488 4.48127C9.56749 4.48127 9.73172 4.31685 9.73172 4.11424V1.36638C9.73172 1.16395 9.56768 0.999725 9.36525 0.999351Z" fill="#990033"/>
</g>
<defs>
<clipPath id="clip0">
<rect width="10" height="18" fill="white" transform="translate(0 0.995605)"/>
</clipPath>
</defs>
</svg>
