<svg width="19" height="16" viewBox="0 0 19 16" fill="none" xmlns="http://www.w3.org/2000/svg">
<g clip-path="url(#clip0)">
<path d="M18.7314 2.7317C18.0233 3.03629 17.315 3.22651 16.6072 3.30291C17.4066 2.82323 17.9474 2.14556 18.2292 1.26995C17.4978 1.70387 16.7175 2.00075 15.8877 2.16072C15.1566 1.38408 14.2583 0.995605 13.1921 0.995605C12.1719 0.995605 11.3021 1.35532 10.5822 2.07491C9.8628 2.79446 9.50304 3.66431 9.50304 4.68457C9.50304 4.95863 9.53345 5.24046 9.59441 5.52977C8.08675 5.45364 6.67245 5.07485 5.35129 4.39338C4.0302 3.71183 2.90901 2.80383 1.98773 1.66935C1.65269 2.24029 1.48512 2.86095 1.48512 3.53098C1.48512 4.16296 1.63357 4.74933 1.93068 5.28995C2.22759 5.83048 2.62743 6.26824 3.12999 6.60331C2.53598 6.58043 1.98016 6.4243 1.46248 6.13495V6.18063C1.46248 7.07156 1.7423 7.85376 2.30188 8.52782C2.86153 9.20181 3.5678 9.62605 4.42052 9.80126C4.10069 9.8849 3.77702 9.9268 3.44966 9.9268C3.23644 9.9268 3.00418 9.90779 2.75296 9.86999C2.98898 10.6084 3.42302 11.2154 4.05492 11.6916C4.68694 12.1674 5.40269 12.4127 6.20221 12.4283C4.86216 13.4789 3.33553 14.0042 1.62233 14.0042C1.29486 14.0042 0.997991 13.9893 0.731445 13.9587C2.44469 15.0626 4.33299 15.6146 6.39647 15.6146C7.70611 15.6146 8.93583 15.4073 10.0852 14.9922C11.2352 14.5774 12.2173 14.0215 13.0321 13.3246C13.8467 12.628 14.5492 11.8266 15.1393 10.9205C15.7293 10.0144 16.1689 9.06843 16.4585 8.08242C16.7477 7.0962 16.8924 6.10847 16.8924 5.11845C16.8924 4.90523 16.8886 4.74541 16.8809 4.63876C17.6045 4.11363 18.2212 3.47773 18.7314 2.7317Z" fill="#990033"/>
</g>
<defs>
<clipPath id="clip0">
<rect width="19" height="15" fill="white" transform="translate(0 0.995605)"/>
</clipPath>
</defs>
</svg>
