<svg width="20" height="13" viewBox="0 0 20 13" fill="none" xmlns="http://www.w3.org/2000/svg">
<g clip-path="url(#clip0)">
<path d="M19.894 11.3009C19.8698 11.2487 19.8472 11.2054 19.8262 11.1707C19.4792 10.5458 18.8161 9.77869 17.8373 8.86925L17.8166 8.84842L17.8063 8.83821L17.7958 8.82774H17.7853C17.341 8.40426 17.0597 8.11952 16.9419 7.97374C16.7264 7.69604 16.6781 7.41494 16.7959 7.13013C16.8791 6.91494 17.1918 6.46049 17.7331 5.76617C18.0178 5.39819 18.2433 5.10328 18.4099 4.88109C19.611 3.28432 20.1317 2.26396 19.9719 1.81962L19.9099 1.71578C19.8682 1.65326 19.7606 1.59608 19.5872 1.54392C19.4135 1.49187 19.1914 1.48327 18.9206 1.51795L15.9217 1.53867C15.8731 1.52145 15.8037 1.52306 15.7134 1.54392C15.6231 1.56478 15.5779 1.57525 15.5779 1.57525L15.5257 1.60133L15.4843 1.63266C15.4496 1.65337 15.4114 1.68981 15.3697 1.74189C15.3282 1.79379 15.2936 1.8547 15.2658 1.92411C14.9393 2.76411 14.5681 3.5451 14.1515 4.26704C13.8946 4.69752 13.6587 5.0706 13.4433 5.38649C13.2281 5.70227 13.0476 5.93492 12.9019 6.08406C12.756 6.23334 12.6244 6.35294 12.5061 6.44328C12.3881 6.53366 12.298 6.57184 12.2355 6.55787C12.173 6.54391 12.1141 6.53005 12.0583 6.51619C11.9612 6.45367 11.8831 6.36866 11.8242 6.26106C11.765 6.15347 11.7252 6.01805 11.7044 5.8549C11.6836 5.69165 11.6714 5.55123 11.6679 5.43317C11.6646 5.31526 11.6661 5.14847 11.6732 4.93328C11.6804 4.71798 11.6836 4.57231 11.6836 4.49594C11.6836 4.2321 11.6888 3.94575 11.6991 3.63683C11.7096 3.3279 11.7181 3.08314 11.7252 2.90282C11.7323 2.72231 11.7356 2.53135 11.7356 2.33002C11.7356 2.12869 11.7233 1.97079 11.6991 1.8562C11.6752 1.74175 11.6385 1.63065 11.5901 1.52295C11.5414 1.41535 11.4701 1.33212 11.3766 1.27304C11.2829 1.21403 11.1664 1.16719 11.0278 1.1324C10.6598 1.04913 10.1912 1.00409 9.62185 0.997087C8.33069 0.983228 7.50105 1.0666 7.13311 1.24711C6.98733 1.32337 6.85541 1.42757 6.73746 1.55938C6.61247 1.71217 6.59504 1.79554 6.68527 1.80926C7.10186 1.87166 7.39677 2.02095 7.57035 2.25696L7.6329 2.38203C7.68155 2.47226 7.73013 2.63201 7.77875 2.86106C7.8273 3.0901 7.85863 3.34348 7.87241 3.62103C7.90706 4.12789 7.90706 4.56177 7.87241 4.9227C7.83765 5.28378 7.80483 5.56487 7.7735 5.7662C7.74217 5.96753 7.69534 6.13067 7.6329 6.25559C7.57035 6.38055 7.52873 6.45692 7.50787 6.48464C7.48704 6.51236 7.46968 6.52983 7.4559 6.53668C7.36566 6.57126 7.27182 6.58888 7.17469 6.58888C7.07742 6.58888 6.95947 6.54022 6.82065 6.44299C6.68188 6.34575 6.53785 6.21219 6.38856 6.04208C6.23928 5.87194 6.07093 5.63417 5.88342 5.32875C5.69606 5.02333 5.50166 4.66236 5.30033 4.24585L5.13376 3.94378C5.02963 3.74945 4.88739 3.4665 4.70689 3.09517C4.52628 2.7237 4.36664 2.36437 4.22786 2.01726C4.17238 1.87148 4.08904 1.76049 3.97799 1.68412L3.92587 1.65279C3.89122 1.62507 3.8356 1.59564 3.7593 1.56427C3.68289 1.53294 3.60316 1.51047 3.51978 1.49665L0.666572 1.51737C0.375011 1.51737 0.177184 1.58342 0.073018 1.71534L0.0313299 1.77774C0.0105041 1.8125 0 1.86801 0 1.94442C0 2.0208 0.0208258 2.11454 0.0625139 2.22552C0.47903 3.20445 0.931983 4.14854 1.42137 5.05794C1.91076 5.96735 2.33603 6.6999 2.69692 7.25494C3.05789 7.81038 3.42583 8.3346 3.80073 8.82734C4.17563 9.32027 4.42379 9.63616 4.54521 9.77493C4.66677 9.91397 4.76225 10.0179 4.83166 10.0873L5.09204 10.3372C5.25865 10.5038 5.5033 10.7034 5.82612 10.9359C6.14901 11.1686 6.50648 11.3976 6.89871 11.6234C7.291 11.8489 7.74739 12.0328 8.2681 12.1751C8.78875 12.3175 9.2955 12.3747 9.78842 12.3471H10.986C11.2288 12.3261 11.4128 12.2498 11.5379 12.118L11.5793 12.0658C11.6072 12.0243 11.6333 11.96 11.6573 11.8733C11.6817 11.7866 11.6938 11.691 11.6938 11.587C11.6867 11.2885 11.7094 11.0195 11.7614 10.7801C11.8133 10.5407 11.8724 10.3602 11.9386 10.2386C12.0047 10.1172 12.0793 10.0147 12.1624 9.93158C12.2456 9.84832 12.3049 9.79788 12.3397 9.78051C12.3743 9.76303 12.4019 9.75119 12.4227 9.74408C12.5893 9.68857 12.7854 9.74233 13.0112 9.90561C13.2369 10.0688 13.4486 10.2702 13.6465 10.5096C13.8444 10.7492 14.0821 11.0181 14.3597 11.3165C14.6376 11.6151 14.8805 11.837 15.0886 11.983L15.2968 12.108C15.4359 12.1913 15.6164 12.2677 15.8386 12.3371C16.0604 12.4065 16.2547 12.4239 16.4215 12.3892L19.0872 12.3476C19.3509 12.3476 19.556 12.3039 19.7015 12.2173C19.8474 12.1305 19.934 12.0349 19.9619 11.931C19.9898 11.8269 19.9913 11.7088 19.9672 11.5767C19.9425 11.445 19.9182 11.3529 19.894 11.3009Z" fill="#990033"/>
</g>
<defs>
<clipPath id="clip0">
<rect width="20" height="12" fill="white" transform="translate(0 0.995605)"/>
</clipPath>
</defs>
</svg>
